<?xml version="1.0" encoding="utf-8"?>
<!-- Generator: Adobe Illustrator 24.3.0, SVG Export Plug-In . SVG Version: 6.00 Build 0)  -->
<svg version="1.1" id="Layer_1" xmlns="http://www.w3.org/2000/svg" xmlns:xlink="http://www.w3.org/1999/xlink" x="0px" y="0px"
	 viewBox="0 0 800 800" style="enable-background:new 0 0 800 800;" xml:space="preserve">
<style type="text/css">
	.st0{fill:#493C13;}
	.st1{fill:#FFE7A4;}
	.st2{fill:#C69B10;}
	.st3{fill:#FACC15;}
</style>
<rect class="st0" width="800" height="800"/>
<g id="fill">
	<path class="st1" d="M216.8,745.8c-92,3.6-169.5-68.1-173.1-160.2c-3.6-92,68.1-169.5,160.2-173.1c4.3-0.2,8.6-0.2,12.9,0"/>
	<path class="st1" d="M583.2,412.5c92-3.6,169.5,68.1,173.1,160.2c3.6,92-68.1,169.5-160.2,173.1c-4.3,0.2-8.6,0.2-12.9,0"/>
	<path class="st2" d="M700,404.2c-13.8,0-25-11.2-25-25c0-151.9-123.1-275-275-275s-275,123.1-275,275c0,13.8-11.2,25-25,25
		s-25-11.2-25-25c0-179.5,145.5-325,325-325s325,145.5,325,325C725,393.1,713.8,404.2,700,404.2z"/>
</g>
<g>
	<path class="st3" d="M1381.5,830.9c-87,0-174,0-261,0c-76.5,0-138.5-62-138.5-138.5c0-174.3,0-348.6,0-522.9
		C982,93,1044,31,1120.5,31c174.3,0,348.6,0,522.9,0C1720,31,1782,93,1782,169.5c0,174.3,0,348.6,0,522.9
		c0,76.5-62,138.5-138.5,138.5C1556.1,830.9,1468.8,830.9,1381.5,830.9z M1057.1,400.6c0,3.7-0.1,7.3,0,11
		c0.2,11.1,6.3,18.1,16,22.4c7.4,3.3,19.9,0.4,26-5.4c6.4-6.1,8.2-13.7,8.2-22.1c-0.1-23,3.1-45.7,9.2-67.9
		c12.1-43.7,32.9-82.8,64.6-115.5c68.9-71.1,152.7-99.2,250.3-83c102.6,17.1,188.7,96.7,215.7,197.2c6.6,24.7,9.7,49.9,10,75.5
		c0.1,9.7,9.6,20.6,18.7,22.1c17.9,3,31.2-8.2,31.2-26.4c-0.1-20.5-2-40.8-5.9-60.9c-24.4-126.2-123.3-228.6-251.9-255.4
		c-27.6-5.8-55.5-8-83.8-6.3c-19.9,1.2-39.4,3.6-58.7,8.2C1237,110.6,1179.4,147,1133,200.9c-20.7,24.1-37.1,51.2-49.7,80.5
		C1067,319.5,1058.2,359.2,1057.1,400.6z M1198.9,610c0-54,0-107.9,0.1-161.9c0-3.9-0.9-5.1-4.9-5c-9.3,0.2-18.6,0.7-27.8,2.2
		c-92.8,14.5-155.6,103.9-137.9,196.2c15.1,78.9,84.1,135.5,164.9,135.6c4.5,0,5.8-1,5.8-5.7C1198.8,717.6,1198.9,663.8,1198.9,610z
		 M1565.1,609.9c0,53.8,0.1,107.6-0.1,161.4c0,4.4,1.1,5.6,5.5,5.5c9.7-0.1,19.3-0.6,28.8-2.2c92.4-15.7,154-104.4,136.2-196.1
		c-15.3-79-84.3-135.6-165-135.5c-4.3,0-5.6,0.9-5.6,5.4C1565.2,502.3,1565.1,556.1,1565.1,609.9z"/>
</g>
</svg>
